<?xml version="1.0" encoding="utf-8"?>
<!-- Generator: Adobe Illustrator 22.1.0, SVG Export Plug-In . SVG Version: 6.00 Build 0) -->
<svg version="1.1" id="sc" xmlns="http://www.w3.org/2000/svg" xmlns:xlink="http://www.w3.org/1999/xlink" x="0px" y="0px" viewBox="0 0 3000 526" style="enable-background:new 0 0 3000 526;" xml:space="preserve">
	<style type="text/css">
		.st0{fill:#FFFFFF;}
		.st1{fill:#FF0000;}
	</style>
	<g>
		<path class="st0" d="M955.3,138c-3.6,41.9,15.6,60.6,53.8,60.3c111.6-0.8,167.4,1.1,167.4,1.1c12,0.8,17.8,8,15.1,21.3
		c-2.3,11.1-11,15.1-23.9,14.9c-144.9-1.5-217.4-1.1-217.4-1.1c-5,28-7.5,42-7.5,42c150.5-0.7,189.8,0.9,228.8,0
		c46.2-4.4,69.2-26.9,69-67.5c-1-28.4-20.9-43.1-59.6-43.4c-108.8-0.9-150.2-0.4-163.2-1.1c-13-0.7-17-12.6-16.5-20.6
		c0.6-10.4,15.6-18.1,30.5-18.1c141.8-0.7,212.7,0.9,212.7,0.9l9.1-42h-224.4C998.3,84.9,958.1,104.5,955.3,138z" />
		<path class="st0" d="M1520.9,197.1c-4.6,24.5-20.8,37.9-41.2,38.6c-41.7,1.5-87.2,1.7-136.3-0.2c-24.6-0.9-33.8-17.2-27.8-45
		c0,0,6.7-35.2,20-105.7c0,0-14.2,0-45.4,0c0,0-8.4,38.5-20.2,115.8l0,0c-6.8,44.6,28,75.1,59.7,75.4c0,0,46.1,0.3,138.3,1
		c26.2-0.2,50.1-6.7,61.4-13.6c8-4.9,17-13.9,24.2-26.5c15.8-27.9,18.6-76.8,34.2-151.9c0,0-15.6,0-46.9,0
		C1540.7,84.9,1535.2,121.7,1520.9,197.1z" />
		<polygon class="st0" points="1783.3,208.1 1679.5,84.9 1638.9,84.9 1603.1,276.9 1652.6,276.9 1674.7,151.1 1773.7,270.1 
		1913.9,152.6 1893.6,276.9 1941,276.9 1967.9,84.9 1929.7,84.9 	" />
		<path class="st0" d="M2249.4,85.2l-229.9-0.3L1983.3,277c0,0,78.4-1.9,236.5-0.5c75.6,0.7,93.1-83.7,39-98.2
		C2319.4,143.7,2294.3,86.7,2249.4,85.2z M2222.4,235H2040l6.3-36h174.8C2248,198.5,2246,236,2222.4,235z M2223.1,162.5h-172.2
		l6.3-35h164.7C2248.7,127,2246.7,163.6,2223.1,162.5z" />
		<path class="st0" d="M2909.3,209.4c52.7-2.4,79.3-25.1,79.6-68c2.8-36.7-25-55.6-83.2-56.6h-192.4l-36.1,192.1h47.4l0,0l11.6-65.7
		h104.4l83.8,65.7h75.5L2909.3,209.4z M2744.6,170.5l8.3-42.1h161.2c42,0.1,24.8,42.9-0.9,42.1l0,0H2744.6z" />
		<path class="st0" d="M2494.4,84.9L2310.1,277h59l29.6-32.6h183.8l23,32.6h56.4l0,0L2541.5,84.9H2494.4z M2436.3,207.2l75.5-81.2
		l51,81.2H2436.3z" />
	</g>
	<rect x="1984.4" y="401" class="st0" width="1015.6" height="9.5" />
	<g>
		<path class="st1" d="M1040.6,440.2c1.6-9.4,2.4-14.1,2.4-14.1c-37.3,0-65.6,0-65.7,0c-11.8-1.1-22.4-3.9-21.2-10.9
		c1.6-9.5,2.2-17.7,9.9-24c5.9-4.3,17.2-6.5,26.7-6.9c37.1-0.1,56.7,0.1,56.7,0.1c2.9-9.2,4-14.1,4-14.1c-39-0.1-58.5-0.1-58.5-0.1
		c-18.8,0.9-38.3,4.5-46.8,18.1c-6.5,10.4-10.3,27.1-7.1,37.2c2.5,8,12.8,14.4,31.1,14.5C1009.2,440.4,1040.6,440.2,1040.6,440.2
		L1040.6,440.2z" />
		<path class="st1" d="M1180.4,389.4c-4.8-19.4-31.5-21.2-83-17.4l0,0c-29.9,1.8-46.6,43.4-28.8,58.1c11.5,9.5,28.3,12.6,79.8,8.3
		C1175.5,436.1,1185.2,408.7,1180.4,389.4z M1146.2,424.1c-36.5,2.1-55.8,2.3-61.7-2.3c-12.9-10-1.5-36.1,20-37.1
		c36.4-2.7,54.3-1.6,58.8,9.1C1167.7,404.6,1162.3,423.2,1146.2,424.1z" />
		<polygon class="st1" points="1322.4,370.3 1308.5,370.3 1255.1,415.2 1217.3,370.3 1202.5,370.3 1189.5,440.3 1207.5,440.3 
		1215.6,394.4 1251.6,437.8 1302.7,395 1295.3,440.3 1312.6,440.3 	" />
		<path class="st1" d="M1803.1,440.9c-57.1-0.5-102.9,0.2-102.9,0.2l13.2-70l83.7,0.1c0.2,0,18.7,0,18.9,0l-3,15.4h-25.9H1740h-12.8
		l-2.3,12.8h15.1h47.6c0.2,0,0.4,0,0.7,0h11.8l-3.3,13.3h-9.9H1740h-16.8l-2.3,13.1h19.1h61.7c0.2,0,0.4,0,0.6,0h3.2L1803.1,440.9
		L1803.1,440.9z" />
		<path class="st1" d="M1416.2,402.4c9.4,0.3,15.6-15.3,0.3-15.4h-58.7l-3,15.4H1416.2z M1347.6,441.1h-17.3l13.1-70h70.1
		c21.2,0.4,31.3,7.2,30.3,20.6c-0.3,28.9-33.6,24.9-54,25.4h-38L1347.6,441.1L1347.6,441.1z" />
		<path class="st1" d="M1452.1,413.3c4.3-28.1,7.4-42.2,7.4-42.2c11.4,0,16.5,0,16.5,0c-4.8,25.7-7.3,38.5-7.3,38.5
		c-2.2,10.1,1.2,16.1,10.1,16.4c17.9,0.7,34.5,0.6,49.7,0.1c7.4-0.3,13.3-5.1,15-14.1c5.2-27.5,7.2-40.9,7.2-40.9
		c11.4,0,17.1,0,17.1,0c-5.7,27.4-6.7,45.2-12.4,55.3c-2.6,4.6-5.9,7.9-8.8,9.7c-4.1,2.5-12.8,4.9-22.4,5
		c-33.6-0.2-50.4-0.3-50.4-0.3C1462.3,440.7,1449.6,429.6,1452.1,413.3L1452.1,413.3z" />
		<polygon class="st1" points="1624.3,387 1575.7,387 1578.6,371.2 1692.3,371.6 1690,387 1642.1,387 1632,441.1 1614.6,441.1 	" />
		<path class="st1" d="M1909.9,402.4c9.4,0.3,15.6-15.3,0.3-15.4h-58.7l-3,15.4H1909.9z M1841.2,441.1h-17.3l13.1-70h70.1
		c21.2,0.4,31.3,7.2,30.3,20.6c-0.1,15.6-9.8,23.9-29,24.8l33,24.6H1914l-30.5-23.9h-38L1841.2,441.1L1841.2,441.1z" />
	</g>
	<g>
		<path class="st0" d="M328.2,304.2l-301.1-0.8C9.1,354.8,0,380.5,0,380.5h286.1C299.6,354.6,313.6,329.3,328.2,304.2z" />
		<path class="st0" d="M252.5,75.4l391.9,0.1c0,0,9-25,27.1-75C405.6,0.2,272.7,0,272.7,0C168.5,8.4,128.5,64.3,95.4,141.3
		c-11,25.5-11.2,27.7-30.6,74.4c162.2,0,278.9-0.8,351.8-1.4c10.7-0.1,17.8-0.6,28.3-1.8l0.5-0.1l0,0l0.5-0.1l0,0l0.5-0.1l0,0
		c10.1-1.1,20.3-1.7,30.2-1.7h0.1h0.4h0.1h0.3h0.2h0.2l10.7-0.2l16.1-0.2l-0.1,0.3h5.8l-5.2,14.6c-5.2,14.4-10.1,29.5-16.6,43.4
		c-8.7,18.6-21.1,26.9-36.8,38.9c-18.6,13.6-36.9,42.8-53.1,73.1h1c83.7-3.3,140.6-36.8,170.5-100.4
		c35.1-95.6,52.6-143.4,52.6-143.4c-294.9-0.3-436.1-0.4-436.1-0.4C202.4,106.5,218.8,78.2,252.5,75.4L252.5,75.4z" />
	</g>
	<g>
		<path class="st1" d="M356.2,278.4c-60,99.7-71,130.8-132.4,247.3c177.1,0.9,355.4-0.6,532.8,0l28.4-77.2
		c-294.9-0.3-432.6-0.4-432.6-0.4c22.5-42.7,55.9-122.4,92.9-149.5c11-8.4,25.2-17.1,33.4-34.7c5.6-12.1,11.2-28.6,16.2-42.5h-6.4
		l-10.7,0.2c-10.4,0-21.4,0.6-31.8,1.8C405.1,228,379.1,240.4,356.2,278.4L356.2,278.4z" />
		<path class="st1" d="M606,215.7c-6.7,18.3-14.7,39.7-23.8,64.3c-1.8,3.7-3.6,7.4-5.6,10.9l272.6,0.1c0,0,9.1-25,27.3-75L606,215.7z
		" />
	</g>
</svg>
